<?xml version="1.0" encoding="UTF-8"?>
<svg xmlns="http://www.w3.org/2000/svg" viewBox="0 0 339.57 119.98">
  <defs>
    <style>.cls-1{fill:#b2f520;}</style>
  </defs>
  <g id="katman_2" data-name="katman 2">
    <g id="katman_1-2" data-name="katman 1">
      <path d="M65.6,17.5h-5a4.65,4.65,0,0,0-4.62,3.22l-32.76,82.6L12.53,20.86C12.11,18.62,11,17.5,8.9,17.5H3c-2.1,0-3.36,1.4-2.94,3.08L14.5,116.06c.27,1.82,1.53,2.8,3.77,2.8H23.6a4.62,4.62,0,0,0,4.62-3.36L67.56,20.58C68.26,19,67.69,17.5,65.6,17.5Z"></path>
      <path d="M122.71,92.4l-4.48-1c-1.68-.42-2.66.28-2.94,1.82Q111.51,110,93.45,110C81,110,74.69,100.8,74.69,82.18V78.82q55.23,0,55.3-37.1a26.11,26.11,0,0,0-6.58-17.78q-6.51-7.56-19.32-7.56-40.53,0-40.46,66.36c0,23.38,7.56,37.24,28.14,37.24,9.8,0,17.36-2.52,22.82-7.56s9-10.92,10.36-17.5C125.23,93.66,124.53,92.82,122.71,92.4ZM102.83,26.32c10.78,0,16.1,5.46,16.1,16.38C118.93,58,104.23,69,75,69,76.94,40.6,86.17,26.32,102.83,26.32Z"></path>
      <path d="M181.37,16.66a14.1,14.1,0,0,0-2.66-.28c-8.82,0-16.24,3.22-20.58,7.84s-6.58,8.12-7.84,11.9h-.56l2-15.26c.28-2.24-.7-3.36-2.8-3.36h-3.5c-2.1,0-3.36,1.12-3.64,3.36l-12.46,94.78c-.28,2.1.7,3.22,2.8,3.22h4.62a3.35,3.35,0,0,0,3.64-3.22l7.14-54.18a58.43,58.43,0,0,1,7.56-22.26c4.34-7.42,11.9-12.6,21.42-12.6,1.54,0,2.8.14,2.94.14a2.89,2.89,0,0,0,3.22-2.66l.7-4.9A2.06,2.06,0,0,0,181.37,16.66Z"></path>
      <path d="M309.61,92.4l-4.48-1c-1.68-.42-2.66.28-2.94,1.82Q298.41,110,280.35,110c-12.46,0-18.76-9.24-18.76-27.86V78.82q55.23,0,55.3-37.1a26.11,26.11,0,0,0-6.58-17.78Q303.8,16.38,291,16.38q-40.53,0-40.46,66.36c0,23.38,7.56,37.24,28.14,37.24,9.8,0,17.36-2.52,22.82-7.56s9-10.92,10.36-17.5C312.13,93.66,311.43,92.82,309.61,92.4ZM289.73,26.32c10.78,0,16.1,5.46,16.1,16.38,0,15.26-14.7,26.32-44,26.32C263.83,40.6,273.07,26.32,289.73,26.32Z"></path>
      <path class="cls-1" d="M330.05,95.48c-6.58,0-12.46,6-12.46,13.16,0,5.74,3.92,10.22,9.38,10.22,6.72,0,12.6-5.88,12.6-13C339.57,100.1,335.51,95.48,330.05,95.48Z"></path>
      <path d="M247.73,0h-4.48c-2.24,0-3.5.84-3.64,2.52l-1.74,13.34-2,15.64h-.7a16.54,16.54,0,0,0-8.4-12.44,23.57,23.57,0,0,0-11.62-2.68c-13.44,0-23.66,7-29.4,19.32s-8.4,27.72-8.4,47.18c0,24.78,8,37.1,24.08,37.1,12.32,0,21.28-7,24.78-15.4h.56l-1.4,10.92q-.42,3.36,2.94,3.36h3.92c2.1,0,3.36-1.12,3.64-3.36l9.64-73.64,2.26-17.25,2.8-21.39C250.81,1.12,249.83,0,247.73,0Zm-44.1,110c-10.36,0-15.54-9.38-15.54-28,0-13.44,1.26-24.64,4.76-36.4,3.78-11.9,11.2-19.32,21.84-19.32q7.56,0,12,5.07a24.23,24.23,0,0,1,5,10.47,63.26,63.26,0,0,1,1.48,14.7C233.17,92.26,223.37,110,203.63,110Z"></path>
    </g>
  </g>
</svg>
